<?xml version="1.0" encoding="UTF-8"?>
<svg version="1.1" xmlns="http://www.w3.org/2000/svg" width="229" height="224">
<path d="M0 0 C75.57 0 151.14 0 229 0 C229 73.92 229 147.84 229 224 C153.43 224 77.86 224 0 224 C0 150.08 0 76.16 0 0 Z " fill="#D3CECB" transform="translate(0,0)"/>
<path d="M0 0 C1.16015625 -0.04350586 1.16015625 -0.04350586 2.34375 -0.08789062 C10.39122814 -0.17565675 16.32593249 2.92698408 22.25 8.3125 C22.745 9.3025 22.745 9.3025 23.25 10.3125 C24.24 10.6425 25.23 10.9725 26.25 11.3125 C31.15759323 20.03711018 30.35765187 32.32233327 28.25 41.875 C27.92 43.009375 27.59 44.14375 27.25 45.3125 C26.59 45.3125 25.93 45.3125 25.25 45.3125 C24.59 47.9525 23.93 50.5925 23.25 53.3125 C22.59 53.3125 21.93 53.3125 21.25 53.3125 C21.1571875 55.0140625 21.1571875 55.0140625 21.0625 56.75 C20.52090316 61.24206789 18.74467897 64.45253009 16.43359375 68.2890625 C15.14838929 70.33231022 15.14838929 70.33231022 14.375 72.875 C12.02724101 77.96181114 7.87271744 82.23068837 3.25 85.3125 C4.33201217 87.49684382 5.43591558 89.66458791 6.57421875 91.8203125 C7.02410156 92.68398437 7.47398438 93.54765625 7.9375 94.4375 C8.39511719 95.30632812 8.85273437 96.17515625 9.32421875 97.0703125 C9.62972656 97.81023437 9.93523437 98.55015625 10.25 99.3125 C9.92 99.9725 9.59 100.6325 9.25 101.3125 C7.0022025 99.26016315 6.2477758 98.30582739 5.25 95.3125 C4.26 94.8175 4.26 94.8175 3.25 94.3125 C3.25 92.9925 3.25 91.6725 3.25 90.3125 C2.59 90.3125 1.93 90.3125 1.25 90.3125 C1.25 89.3225 1.25 88.3325 1.25 87.3125 C-2.71 88.3025 -2.71 88.3025 -6.75 89.3125 C-6.50636719 88.58546875 -6.26273438 87.8584375 -6.01171875 87.109375 C-5.4490383 84.22442915 -5.4490383 84.22442915 -7.33203125 81.890625 C-8.06808594 81.12234375 -8.80414063 80.3540625 -9.5625 79.5625 C-10.29082031 78.78390625 -11.01914063 78.0053125 -11.76953125 77.203125 C-13.61140763 75.25924173 -13.61140763 75.25924173 -15.75 74.3125 C-15.9975 73.054375 -16.245 71.79625 -16.5 70.5 C-17.54333143 65.21603116 -19.86947026 60.92557115 -22.359375 56.1875 C-24.10084007 52.58716771 -24.90053999 49.20585838 -25.75 45.3125 C-26.41 44.3225 -27.07 43.3325 -27.75 42.3125 C-28.08 41.301875 -28.41 40.29125 -28.75 39.25 C-29.53621891 36.23194266 -29.53621891 36.23194266 -31.75 34.3125 C-32.44999312 28.71255501 -30.98089998 24.79821009 -28.7578125 19.67578125 C-27.64151442 17.18340621 -27.64151442 17.18340621 -26.75 13.9375 C-25.57261043 10.84685238 -24.24925043 9.45471465 -21.75 7.3125 C-20.925 6.57 -20.1 5.8275 -19.25 5.0625 C-16.75 3.3125 -16.75 3.3125 -12.75 3.3125 C-12.75 2.6525 -12.75 1.9925 -12.75 1.3125 C-8.47248566 0.12476649 -4.4161463 0.05411944 0 0 Z " fill="#CC9B89" transform="translate(112.75,36.6875)"/>
<path d="M0 0 C6.18011313 0.32837113 9.92976643 1.16871505 14.5 5.421875 C15.89518641 7.29528568 16.33610371 8.80686051 16.7421875 11.08984375 C15.7521875 11.50234375 14.7621875 11.91484375 13.7421875 12.33984375 C12.40748253 12.92003183 11.0742582 13.50363286 9.7421875 14.08984375 C9.01257813 14.40308594 8.28296875 14.71632813 7.53125 15.0390625 C6.46003906 15.52826172 6.46003906 15.52826172 5.3671875 16.02734375 C4.69945313 16.32511719 4.03171875 16.62289062 3.34375 16.9296875 C1.54502562 17.99784729 1.54502562 17.99784729 1.015625 20.21875 C0.92539063 20.83621094 0.83515625 21.45367187 0.7421875 22.08984375 C1.9796875 22.77046875 1.9796875 22.77046875 3.2421875 23.46484375 C4.0671875 24.00109375 4.8921875 24.53734375 5.7421875 25.08984375 C5.7421875 25.74984375 5.7421875 26.40984375 5.7421875 27.08984375 C8.3821875 27.08984375 11.0221875 27.08984375 13.7421875 27.08984375 C13.7421875 26.42984375 13.7421875 25.76984375 13.7421875 25.08984375 C14.7321875 25.08984375 15.7221875 25.08984375 16.7421875 25.08984375 C17.0721875 23.10984375 17.4021875 21.12984375 17.7421875 19.08984375 C18.7321875 19.08984375 19.7221875 19.08984375 20.7421875 19.08984375 C21.02520115 25.03313043 20.55194975 29.38686831 18.46875 34.9453125 C17.58284013 37.34411594 17.58284013 37.34411594 17.1796875 41.02734375 C16.7421875 44.08984375 16.7421875 44.08984375 14.7421875 46.08984375 C15.0721875 46.74984375 15.4021875 47.40984375 15.7421875 48.08984375 C14.7521875 48.58484375 14.7521875 48.58484375 13.7421875 49.08984375 C13.4121875 50.07984375 13.0821875 51.06984375 12.7421875 52.08984375 C12.0821875 52.08984375 11.4221875 52.08984375 10.7421875 52.08984375 C10.4740625 52.85296875 10.2059375 53.61609375 9.9296875 54.40234375 C8.76023674 57.04899547 8.04318668 58.38539991 5.7421875 60.08984375 C2.09384525 61.24195183 -0.57790608 61.0361054 -4.2578125 60.08984375 C-3.9278125 58.43984375 -3.5978125 56.78984375 -3.2578125 55.08984375 C-2.3503125 54.84234375 -1.4428125 54.59484375 -0.5078125 54.33984375 C2.86714873 53.04178174 4.48320871 51.87012534 6.7421875 49.08984375 C6.7421875 48.42984375 6.7421875 47.76984375 6.7421875 47.08984375 C2.58592382 46.08057896 -1.30146344 45.98744796 -5.5703125 46.02734375 C-6.82457031 46.03636719 -8.07882813 46.04539063 -9.37109375 46.0546875 C-10.80001953 46.07208984 -10.80001953 46.07208984 -12.2578125 46.08984375 C-11.9071875 46.70859375 -11.5565625 47.32734375 -11.1953125 47.96484375 C-10.8859375 48.66609375 -10.5765625 49.36734375 -10.2578125 50.08984375 C-10.5878125 50.74984375 -10.9178125 51.40984375 -11.2578125 52.08984375 C-12.2478125 51.75984375 -13.2378125 51.42984375 -14.2578125 51.08984375 C-15.74663688 47.0151665 -16.52051467 43.4244296 -16.2578125 39.08984375 C-16.9178125 39.08984375 -17.5778125 39.08984375 -18.2578125 39.08984375 C-18.6909375 37.72859375 -18.6909375 37.72859375 -19.1328125 36.33984375 C-20.12976656 33.21216605 -20.12976656 33.21216605 -21.3828125 30.90234375 C-22.2578125 29.08984375 -22.2578125 29.08984375 -22.2578125 26.08984375 C-21.13632813 26.10724609 -21.13632813 26.10724609 -19.9921875 26.125 C-19.00734375 26.13402344 -18.0225 26.14304687 -17.0078125 26.15234375 C-16.03328125 26.16394531 -15.05875 26.17554687 -14.0546875 26.1875 C-11.0235502 26.17899036 -11.0235502 26.17899036 -7.2578125 25.08984375 C-8.2478125 30.03984375 -9.2378125 34.98984375 -10.2578125 40.08984375 C-7.45833333 39.796875 -4.65885417 39.50390625 -1.859375 39.2109375 C0.7421875 39.08984375 0.7421875 39.08984375 2.7421875 40.08984375 C0.94398934 36.66381765 0.94398934 36.66381765 -3.2578125 36.08984375 C-3.2578125 30.14984375 -3.2578125 24.20984375 -3.2578125 18.08984375 C-5.2378125 17.42984375 -7.2178125 16.76984375 -9.2578125 16.08984375 C-9.2578125 15.42984375 -9.2578125 14.76984375 -9.2578125 14.08984375 C-9.9178125 14.08984375 -10.5778125 14.08984375 -11.2578125 14.08984375 C-12.4453125 12.58984375 -12.4453125 12.58984375 -13.2578125 10.08984375 C-12.52882546 7.30160137 -11.44214 4.71319283 -10.2578125 2.08984375 C-8.55625 1.87328125 -8.55625 1.87328125 -6.8203125 1.65234375 C-3.69099543 1.15824106 -2.84705634 0.11329117 0 0 Z " fill="#E6BEAE" transform="translate(114.2578125,51.91015625)"/>
<path d="M0 0 C0.66 0 1.32 0 2 0 C1.95875 0.94875 1.9175 1.8975 1.875 2.875 C1.85515492 7.70727658 2.94225804 12.30627004 4 17 C4.66 17 5.32 17 6 17 C8.76081837 23.3618858 9.63176001 29.09232563 10 36 C10.66 36 11.32 36 12 36 C15.5202952 50.72324723 15.5202952 50.72324723 16 56 C15 57 15 57 11.39819336 57.11352539 C9.79540144 57.11336625 8.1926044 57.10767063 6.58984375 57.09765625 C5.74780899 57.0962413 4.90577423 57.09482635 4.03822327 57.09336853 C1.33794665 57.08775263 -1.36224828 57.07519748 -4.0625 57.0625 C-5.88867068 57.05748705 -7.71484266 57.05292379 -9.54101562 57.04882812 C-14.02737542 57.03777804 -18.51367384 57.02050279 -23 57 C-22 54 -22 54 -20.40625 52.9375 C-18.5 52 -18.5 52 -16.59375 51.0625 C-14.66242402 50.01050642 -14.66242402 50.01050642 -14 47 C-13.60469703 44.18671246 -13.25005146 41.38501332 -12.9375 38.5625 C-12.84662109 37.7593335 -12.75574219 36.95616699 -12.66210938 36.12866211 C-12.06142885 30.48373297 -11.86943217 24.96355395 -12.125 19.28515625 C-12 17 -12 17 -10 14 C-9.67 14.33 -9.34 14.66 -9 15 C-8.67 12.36 -8.34 9.72 -8 7 C-7.01 6.67 -6.02 6.34 -5 6 C-4.67 6.99 -4.34 7.98 -4 9 C-3.01 9 -2.02 9 -1 9 C-0.67 6.03 -0.34 3.06 0 0 Z " fill="#C9C4C4" transform="translate(65,167)"/>
<path d="M0 0 C1.16015625 -0.04350586 1.16015625 -0.04350586 2.34375 -0.08789062 C10.39122814 -0.17565675 16.32593249 2.92698408 22.25 8.3125 C22.745 9.3025 22.745 9.3025 23.25 10.3125 C24.24 10.6425 25.23 10.9725 26.25 11.3125 C30.58615593 19.02122166 29.51296585 27.74176127 29.25 36.3125 C27.27 36.9725 25.29 37.6325 23.25 38.3125 C23.20875 37.1575 23.1675 36.0025 23.125 34.8125 C22.30291188 28.27053119 18.01119422 23.72131854 13.25 19.4375 C8.37105898 15.98158344 4.20779967 14.89683956 -1.75 15.3125 C-2.08 15.6425 -2.41 15.9725 -2.75 16.3125 C-3.905 16.3125 -5.06 16.3125 -6.25 16.3125 C-12.4100071 16.97844671 -16.01716879 21.74769655 -19.75 26.3125 C-21.9018449 29.46724093 -23.08680768 31.74757175 -23.3125 35.5625 C-23.5290625 37.41875 -23.5290625 37.41875 -23.75 39.3125 C-24.74 39.8075 -24.74 39.8075 -25.75 40.3125 C-25.75 39.6525 -25.75 38.9925 -25.75 38.3125 C-26.678125 37.879375 -26.678125 37.879375 -27.625 37.4375 C-29.75 36.3125 -29.75 36.3125 -31.75 34.3125 C-32.44999312 28.71255501 -30.98089998 24.79821009 -28.7578125 19.67578125 C-27.64151442 17.18340621 -27.64151442 17.18340621 -26.75 13.9375 C-25.57261043 10.84685238 -24.24925043 9.45471465 -21.75 7.3125 C-20.925 6.57 -20.1 5.8275 -19.25 5.0625 C-16.75 3.3125 -16.75 3.3125 -12.75 3.3125 C-12.75 2.6525 -12.75 1.9925 -12.75 1.3125 C-8.47248566 0.12476649 -4.4161463 0.05411944 0 0 Z " fill="#3E2833" transform="translate(112.75,36.6875)"/>
<path d="M0 0 C3 0 3 0 4.61328125 0.9921875 C6.76489736 4.10748519 6.86522375 7.44882813 7.1875 11.125 C7.30810791 12.38618652 7.30810791 12.38618652 7.43115234 13.67285156 C8.58551104 27.72698404 8.15202025 41.9127901 8 56 C1.73 56 -4.54 56 -11 56 C-10.67 53.69 -10.34 51.38 -10 49 C-10.99 48.67 -11.98 48.34 -13 48 C-12.7834375 46.9790625 -12.7834375 46.9790625 -12.5625 45.9375 C-11.93054091 42.63726918 -11.45686059 39.32855574 -11 36 C-9.515 35.505 -9.515 35.505 -8 35 C-7.34 35.33 -6.68 35.66 -6 36 C-5.375 38.0625 -5.375 38.0625 -5 40 C-2.525 39.505 -2.525 39.505 0 39 C-0.33 37.35 -0.66 35.7 -1 34 C-2.65 33.67 -4.3 33.34 -6 33 C-5.67 32.01 -5.34 31.02 -5 30 C-4.01 30 -3.02 30 -2 30 C-2 30.66 -2 31.32 -2 32 C-1.34 31.67 -0.68 31.34 0 31 C-0.17402344 29.9275 -0.34804687 28.855 -0.52734375 27.75 C-1.22781537 22.14622704 -0.86865367 16.62337439 -0.5625 11 C-0.51029297 9.93910156 -0.45808594 8.87820312 -0.40429688 7.78515625 C-0.27569454 5.18972725 -0.14078533 2.59479182 0 0 Z " fill="#AEA49E" transform="translate(184,168)"/>
<path d="M0 0 C4.67385435 4.5180592 6.26267328 7.4869473 7 14 C8.32 14 9.64 14 11 14 C10.67 16.64 10.34 19.28 10 22 C9.34 22 8.68 22 8 22 C7.34 24.64 6.68 27.28 6 30 C5.34 30 4.68 30 4 30 C3.9071875 31.7015625 3.9071875 31.7015625 3.8125 33.4375 C3.27090316 37.92956789 1.49467897 41.14003009 -0.81640625 44.9765625 C-2.10161071 47.01981022 -2.10161071 47.01981022 -2.875 49.5625 C-5.22275899 54.64931114 -9.37728256 58.91818837 -14 62 C-12.91798783 64.18434382 -11.81408442 66.35208791 -10.67578125 68.5078125 C-10.22589844 69.37148437 -9.77601562 70.23515625 -9.3125 71.125 C-8.85488281 71.99382812 -8.39726563 72.86265625 -7.92578125 73.7578125 C-7.62027344 74.49773437 -7.31476563 75.23765625 -7 76 C-7.33 76.66 -7.66 77.32 -8 78 C-10.2477975 75.94766315 -11.0022242 74.99332739 -12 72 C-12.66 71.67 -13.32 71.34 -14 71 C-14 69.68 -14 68.36 -14 67 C-14.66 67 -15.32 67 -16 67 C-16 66.01 -16 65.02 -16 64 C-19.96 64.99 -19.96 64.99 -24 66 C-22.52910107 62.12217555 -20.57250298 60.95637068 -17 59 C-15.65368175 58.01755155 -14.31558703 57.02323436 -13 56 C-13.61488281 55.96261719 -14.22976562 55.92523438 -14.86328125 55.88671875 C-15.67152344 55.82097656 -16.47976562 55.75523438 -17.3125 55.6875 C-18.51326172 55.60048828 -18.51326172 55.60048828 -19.73828125 55.51171875 C-22.4013248 54.9091994 -23.39869414 54.19126065 -25 52 C-24.6875 49.3125 -24.6875 49.3125 -24 47 C-22.35 47 -20.7 47 -19 47 C-19.495 49.475 -19.495 49.475 -20 52 C-15.01530948 52.29321709 -11.95179356 52.18338925 -8 49 C-6.96642853 47.35394174 -5.95939668 45.69036558 -5 44 C-4.34 44 -3.68 44 -3 44 C-2.855625 43.4225 -2.71125 42.845 -2.5625 42.25 C-2.04166667 40.16666667 -1.52083333 38.08333333 -1 36 C-0.34 36 0.32 36 1 36 C0.94779297 35.14728516 0.94779297 35.14728516 0.89453125 34.27734375 C0.6977598 28.66467242 1.68661679 25.18197839 4 20 C4.51840452 17.00957392 4.80092937 14.02724643 5 11 C4.01 11 3.02 11 2 11 C1.67 12.98 1.34 14.96 1 17 C0.01 17 -0.98 17 -2 17 C-2 17.66 -2 18.32 -2 19 C-4.64 19 -7.28 19 -10 19 C-10 18.34 -10 17.68 -10 17 C-10.804375 16.731875 -11.60875 16.46375 -12.4375 16.1875 C-13.283125 15.795625 -14.12875 15.40375 -15 15 C-15.33 14.01 -15.66 13.02 -16 12 C-12.30776336 7.88173605 -8.3627365 5.84008409 -3.1875 4 C-2.465625 3.67 -1.74375 3.34 -1 3 C-0.67 2.01 -0.34 1.02 0 0 Z " fill="#D6AD9E" transform="translate(130,60)"/>
<path d="M0 0 C4.29 0 8.58 0 13 0 C12.01 1.65 11.02 3.3 10 5 C9.27887995 7.15871728 9.27887995 7.15871728 8.875 9.25 C8 13 8 13 7 14 C5.845 14 4.69 14 3.5 14 C-2.6600071 14.66594671 -6.26716879 19.43519655 -10 24 C-12.1518449 27.15474093 -13.33680768 29.43507175 -13.5625 33.25 C-13.7790625 35.10625 -13.7790625 35.10625 -14 37 C-14.99 37.495 -14.99 37.495 -16 38 C-16 37.34 -16 36.68 -16 36 C-16.928125 35.566875 -16.928125 35.566875 -17.875 35.125 C-20 34 -20 34 -22 32 C-22.69999312 26.40005501 -21.23089998 22.48571009 -19.0078125 17.36328125 C-17.89151442 14.87090621 -17.89151442 14.87090621 -17 11.625 C-15.82261043 8.53435238 -14.49925043 7.14221465 -12 5 C-11.236875 4.236875 -10.47375 3.47375 -9.6875 2.6875 C-7 1 -7 1 -3.1875 1.25 C-2.135625 1.4975 -1.08375 1.745 0 2 C0 1.34 0 0.68 0 0 Z " fill="#3A2130" transform="translate(103,39)"/>
<path d="M0 0 C6.18011313 0.32837113 9.92976643 1.16871505 14.5 5.421875 C15.89518641 7.29528568 16.33610371 8.80686051 16.7421875 11.08984375 C11.37038574 13.7185978 6.69726149 14.69824025 0.7421875 15.08984375 C0.7421875 15.74984375 0.7421875 16.40984375 0.7421875 17.08984375 C-9.82469148 15.58028961 -9.82469148 15.58028961 -12.8203125 12.46484375 C-13.52467389 8.64116763 -11.82103041 5.55245546 -10.2578125 2.08984375 C-8.55625 1.87328125 -8.55625 1.87328125 -6.8203125 1.65234375 C-3.69099543 1.15824106 -2.84705634 0.11329117 0 0 Z " fill="#E6C4BA" transform="translate(114.2578125,51.91015625)"/>
<path d="M0 0 C1.65 0.33 3.3 0.66 5 1 C6.98541986 6.95625959 8.16440718 11.77365696 8.125 18.0625 C8.11992432 19.20235352 8.11992432 19.20235352 8.11474609 20.36523438 C7.99983579 32.92519752 7.99983579 32.92519752 7 37 C3.81175432 38.59412284 0.37103338 38.10174735 -3.125 38.0625 C-3.87910156 38.05798828 -4.63320312 38.05347656 -5.41015625 38.04882812 C-7.27347127 38.03703499 -9.13674555 38.01909942 -11 38 C-11.495 36.515 -11.495 36.515 -12 35 C-11.37351563 34.79503906 -10.74703125 34.59007812 -10.1015625 34.37890625 C-9.28429687 34.10949219 -8.46703125 33.84007812 -7.625 33.5625 C-6.81289062 33.29566406 -6.00078125 33.02882812 -5.1640625 32.75390625 C-2.98968201 32.04820271 -2.98968201 32.04820271 -1 31 C-1.185625 29.865625 -1.37125 28.73125 -1.5625 27.5625 C-1.706875 26.386875 -1.85125 25.21125 -2 24 C-1.67 23.67 -1.34 23.34 -1 23 C-0.9254742 21.63077467 -0.91671491 20.25781323 -0.9375 18.88671875 C-0.94523438 18.05076172 -0.95296875 17.21480469 -0.9609375 16.35351562 C-0.9868075 14.5878881 -1.01284687 12.82226305 -1.0390625 11.05664062 C-1.04679688 10.21681641 -1.05453125 9.37699219 -1.0625 8.51171875 C-1.07410156 7.74303467 -1.08570313 6.97435059 -1.09765625 6.18237305 C-0.99962284 3.99157148 -0.60694059 2.10189023 0 0 Z " fill="#CCB5A3" transform="translate(221,124)"/>
<path d="M0 0 C0.99 0 1.98 0 3 0 C3.33 1.32 3.66 2.64 4 4 C3.01 3.67 2.02 3.34 1 3 C1.13975405 6.54193375 1.28788934 10.08346999 1.4375 13.625 C1.47681641 14.62402344 1.51613281 15.62304688 1.55664062 16.65234375 C1.76654874 21.52867077 2.17596327 26.18378531 3 31 C2.67 31.33 2.34 31.66 2 32 C1.84235595 33.77869726 1.74899323 35.56318476 1.68359375 37.34765625 C1.64169922 38.42724609 1.59980469 39.50683594 1.55664062 40.61914062 C1.51732422 41.75544922 1.47800781 42.89175781 1.4375 44.0625 C1.39431641 45.20267578 1.35113281 46.34285156 1.30664062 47.51757812 C1.20017262 50.34489508 1.09954738 53.17243092 1 56 C-2.96 56 -6.92 56 -11 56 C-10.67 53.69 -10.34 51.38 -10 49 C-10.99 48.67 -11.98 48.34 -13 48 C-12.7834375 46.9790625 -12.7834375 46.9790625 -12.5625 45.9375 C-11.93054091 42.63726918 -11.45686059 39.32855574 -11 36 C-9.515 35.505 -9.515 35.505 -8 35 C-7.34 35.33 -6.68 35.66 -6 36 C-5.375 38.0625 -5.375 38.0625 -5 40 C-2.525 39.505 -2.525 39.505 0 39 C-0.33 37.35 -0.66 35.7 -1 34 C-2.65 33.67 -4.3 33.34 -6 33 C-5.67 32.01 -5.34 31.02 -5 30 C-4.01 30 -3.02 30 -2 30 C-2 30.66 -2 31.32 -2 32 C-1.34 31.67 -0.68 31.34 0 31 C-0.17402344 29.9275 -0.34804687 28.855 -0.52734375 27.75 C-1.22781537 22.14622704 -0.86865367 16.62337439 -0.5625 11 C-0.51029297 9.93910156 -0.45808594 8.87820312 -0.40429688 7.78515625 C-0.27569454 5.18972725 -0.14078533 2.59479182 0 0 Z " fill="#BDB3B2" transform="translate(184,168)"/>
<path d="M0 0 C4.67385435 4.5180592 6.26267328 7.4869473 7 14 C8.32 14 9.64 14 11 14 C10.34 16.31 9.68 18.62 9 21 C7.68 21.33 6.36 21.66 5 22 C5 18.37 5 14.74 5 11 C4.01 11 3.02 11 2 11 C1.67 12.98 1.34 14.96 1 17 C0.01 17 -0.98 17 -2 17 C-2 17.66 -2 18.32 -2 19 C-4.64 19 -7.28 19 -10 19 C-10 18.34 -10 17.68 -10 17 C-10.804375 16.731875 -11.60875 16.46375 -12.4375 16.1875 C-13.283125 15.795625 -14.12875 15.40375 -15 15 C-15.33 14.01 -15.66 13.02 -16 12 C-12.30776336 7.88173605 -8.3627365 5.84008409 -3.1875 4 C-2.1046875 3.505 -2.1046875 3.505 -1 3 C-0.67 2.01 -0.34 1.02 0 0 Z " fill="#D9B3A6" transform="translate(130,60)"/>
<path d="M0 0 C0.99 0 1.98 0 3 0 C2.01 4.95 1.02 9.9 0 15 C5.445 14.505 5.445 14.505 11 14 C10.01 14.495 10.01 14.495 9 15 C8.67 15.66 8.34 16.32 8 17 C7.34 16.67 6.68 16.34 6 16 C6.33 17.32 6.66 18.64 7 20 C4.03 20.33 1.06 20.66 -2 21 C-1.34 22.32 -0.68 23.64 0 25 C-0.33 25.66 -0.66 26.32 -1 27 C-1.99 26.67 -2.98 26.34 -4 26 C-5.48882438 21.92532275 -6.26270217 18.33458585 -6 14 C-6.66 14 -7.32 14 -8 14 C-8.433125 12.63875 -8.433125 12.63875 -8.875 11.25 C-9.87195406 8.1223223 -9.87195406 8.1223223 -11.125 5.8125 C-12 4 -12 4 -12 1 C-11.21753906 1.01160156 -10.43507813 1.02320312 -9.62890625 1.03515625 C-8.61699219 1.04417969 -7.60507813 1.05320312 -6.5625 1.0625 C-5.04849609 1.07990234 -5.04849609 1.07990234 -3.50390625 1.09765625 C-1.05978933 1.28612676 -1.05978933 1.28612676 0 0 Z " fill="#DDAD9C" transform="translate(104,77)"/>
<path d="M0 0 C0.33 0.66 0.66 1.32 1 2 C1.66 2 2.32 2 3 2 C3.73154341 6.84647509 4.00603487 11.42353509 3.96484375 16.30859375 C3.95554504 18.01822818 3.94643761 19.72786365 3.9375 21.4375 C3.92912109 22.29666016 3.92074219 23.15582031 3.91210938 24.04101562 C3.90888672 24.87181641 3.90566406 25.70261719 3.90234375 26.55859375 C3.89710693 27.31454834 3.89187012 28.07050293 3.88647461 28.84936523 C3.9292344 31.0082784 3.9292344 31.0082784 4.53344727 33.07055664 C5.26831393 36.10962061 4.46787421 38.93282464 4 42 C3.96296763 44.33303944 3.95239087 46.66715242 4 49 C4.66 49.33 5.32 49.66 6 50 C5.67 51.98 5.34 53.96 5 56 C5.66 56.33 6.32 56.66 7 57 C6.08978328 62.72136223 6.08978328 62.72136223 5.43359375 64.7578125 C4.8152903 67.95516548 5.20282701 70.88986675 5.5 74.125 C6.10896309 80.78207381 6.10896309 80.78207381 5 83 C2.85546875 83.37890625 2.85546875 83.37890625 0.1875 83.5625 C-2.99455538 83.79281125 -5.9256035 84.13286253 -9 85 C-9 84.34 -9 83.68 -9 83 C-6.3055689 81.31598056 -3.95107532 80.7841152 -0.84375 80.43359375 C0.4246875 80.29050781 1.693125 80.14742188 3 80 C2.93941406 78.94425781 2.87882813 77.88851562 2.81640625 76.80078125 C2.58485845 72.73821221 2.36498081 68.67505293 2.14550781 64.61181641 C2.01013551 62.181929 1.86188114 59.75317918 1.7109375 57.32421875 C0.73045344 40.55966148 0.90445009 23.78591399 1 7 C0.34 7 -0.32 7 -1 7 C-0.67 4.69 -0.34 2.38 0 0 Z " fill="#C4B6AD" transform="translate(199,81)"/>
<path d="M0 0 C0.66 0 1.32 0 2 0 C2.19335938 0.85464844 2.38671875 1.70929688 2.5859375 2.58984375 C2.84632812 3.69457031 3.10671875 4.79929687 3.375 5.9375 C3.63023438 7.03964844 3.88546875 8.14179687 4.1484375 9.27734375 C4.42945312 10.17582031 4.71046875 11.07429688 5 12 C5.66 12.33 6.32 12.66 7 13 C6.67 11.02 6.34 9.04 6 7 C11.03799182 4.48100409 18.49295583 5.59812156 23.75 7 C24.86375 7.495 24.86375 7.495 26 8 C24.68312801 11.95061598 23.30460168 13.43724768 20 16 C16.66895192 16.70797505 13.4000413 16.92737776 10 17 C10 18.65 10 20.3 10 22 C7.08482708 20.92598892 5.22189824 20.22189824 3 18 C2.65458149 15.66842508 2.32205743 13.33491639 2 11 C1.649375 10.34 1.29875 9.68 0.9375 9 C-0.45865464 6.02153677 -0.12448052 3.23649341 0 0 Z " fill="#C08074" transform="translate(96,91)"/>
<path d="M0 0 C0.33 0.99 0.66 1.98 1 3 C1.99 3 2.98 3 4 3 C4.268125 3.804375 4.53625 4.60875 4.8125 5.4375 C5.204375 6.283125 5.59625 7.12875 6 8 C6.99 8.33 7.98 8.66 9 9 C9 14.61 9 20.22 9 26 C7.02 26.66 5.04 27.32 3 28 C2.896875 26.783125 2.79375 25.56625 2.6875 24.3125 C2.23528098 20.54179137 1.05177482 18.21147364 -1 15 C-1 13.68 -1 12.36 -1 11 C-2.62366466 7.75267068 -5.75387839 7.29844864 -9 6 C-6 4 -6 4 -3 4 C-3.66 3.67 -4.32 3.34 -5 3 C-5 2.34 -5 1.68 -5 1 C-3.35 0.67 -1.7 0.34 0 0 Z " fill="#3B2029" transform="translate(133,47)"/>
<path d="M0 0 C1.32 0.33 2.64 0.66 4 1 C4.28875 2.11375 4.5775 3.2275 4.875 4.375 C5.69241329 8.00291092 5.69241329 8.00291092 8 10 C8.68753301 11.65816784 9.35561283 13.32459336 10 15 C10.33 15.33 10.66 15.66 11 16 C11.5715675 18.57205373 12.02869802 21.15783913 12.5 23.75 C12.77949757 25.95845606 12.77949757 25.95845606 14 27 C14.020625 28.0725 14.04125 29.145 14.0625 30.25 C15.05280458 34.21121831 15.27737154 34.7047913 18.4375 36.875 C23.10632103 39.45937462 27.7354404 39.88133165 33 40 C29.5 43.5 29.5 43.5 26 47 C23.06167738 46.85246916 22.04079505 46.04002533 19.9296875 43.96875 C19.25164062 43.1540625 18.57359375 42.339375 17.875 41.5 C15.31393437 38.27622335 15.31393437 38.27622335 12 36 C11.7525 34.741875 11.505 33.48375 11.25 32.1875 C10.20666857 26.90353116 7.88052974 22.61307115 5.390625 17.875 C3.64915993 14.27466771 2.84946001 10.89335838 2 7 C1.34 6.01 0.68 5.02 0 4 C0 2.68 0 1.36 0 0 Z " fill="#B18B7C" transform="translate(85,75)"/>
<path d="M0 0 C2.97 0 5.94 0 9 0 C9.433125 1.134375 9.86625 2.26875 10.3125 3.4375 C11.1478125 5.2009375 11.1478125 5.2009375 12 7 C12.99 7.33 13.98 7.66 15 8 C15.33 5.36 15.66 2.72 16 0 C17.32 0.33 18.64 0.66 20 1 C20 2.98 20 4.96 20 7 C21.65 6.67 23.3 6.34 25 6 C25 4.02 25 2.04 25 0 C26.98 0 28.96 0 31 0 C31 2.64 31 5.28 31 8 C27.24694731 10.45354608 23.51007267 10.26333461 19.1875 10.1875 C18.15786133 10.1865332 18.15786133 10.1865332 17.10742188 10.18554688 C13.66313957 10.15621997 10.53158238 9.92326425 7.11328125 9.36328125 C5.57220703 9.18345703 5.57220703 9.18345703 4 9 C3.34 9.66 2.68 10.32 2 11 C1.93941406 10.37351562 1.87882813 9.74703125 1.81640625 9.1015625 C1.73261719 8.28429688 1.64882812 7.46703125 1.5625 6.625 C1.48128906 5.81289063 1.40007812 5.00078125 1.31640625 4.1640625 C1.10909886 1.95727195 1.10909886 1.95727195 0 0 Z " fill="#D6BEAD" transform="translate(140,54)"/>
<path d="M0 0 C0.33 0 0.66 0 1 0 C5.42752562 22.71742313 5.42752562 22.71742313 2 33 C-2.62 33 -7.24 33 -12 33 C-11 30 -11 30 -9.40625 28.9375 C-7.5 28 -7.5 28 -5.59375 27.0625 C-3.66242402 26.01050642 -3.66242402 26.01050642 -3 23 C-2.80197517 21.65267482 -2.63840981 20.30006033 -2.5 18.9453125 C-2.37625 17.77548828 -2.37625 17.77548828 -2.25 16.58203125 C-2.1675 15.77121094 -2.085 14.96039063 -2 14.125 C-1.00377358 4.42735849 -1.00377358 4.42735849 0 0 Z " fill="#3F2833" transform="translate(54,191)"/>
<path d="M0 0 C0.33 0.99 0.66 1.98 1 3 C-0.9375 6.1875 -0.9375 6.1875 -3 9 C-1.625 7 -1.625 7 0 5 C0.66 5 1.32 5 2 5 C2.66 3.68 3.32 2.36 4 1 C4.66 1.33 5.32 1.66 6 2 C5.236875 2.804375 4.47375 3.60875 3.6875 4.4375 C0.9116008 7.72454211 -0.24165139 11.04805743 -1.421875 15.14453125 C-2 17 -2 17 -3 18 C-3.27953219 20.0587768 -3.44734351 22.11728432 -3.62109375 24.1875 C-3.74613281 24.785625 -3.87117188 25.38375 -4 26 C-4.66 26.33 -5.32 26.66 -6 27 C-6 26.34 -6 25.68 -6 25 C-6.928125 24.566875 -6.928125 24.566875 -7.875 24.125 C-10 23 -10 23 -12 21 C-12.20146402 17.306493 -12.17353189 14.52059568 -11 11 C-10.01 11 -9.02 11 -8 11 C-8.0825 10.24332031 -8.165 9.48664062 -8.25 8.70703125 C-8 6 -8 6 -6.25 4.19921875 C-5.5075 3.70035156 -4.765 3.20148437 -4 2.6875 C-3.2575 2.17574219 -2.515 1.66398437 -1.75 1.13671875 C-1.1725 0.76160156 -0.595 0.38648438 0 0 Z " fill="#2E1522" transform="translate(93,50)"/>
<path d="M0 0 C4.47832188 1.53542464 8.80427026 3.60854052 11 8 C11.99 8.33 12.98 8.66 14 9 C14.625 12.375 14.625 12.375 15 16 C14.34 16.66 13.68 17.32 13 18 C12.67 15.69 12.34 13.38 12 11 C11.01 11 10.02 11 9 11 C8.67 10.34 8.34 9.68 8 9 C7.01 9.33 6.02 9.66 5 10 C3 9 3 9 1.9375 6.125 C1.628125 5.09375 1.31875 4.0625 1 3 C0.67 2.01 0.34 1.02 0 0 Z M-13 6 C-12.34 6 -11.68 6 -11 6 C-11 7.32 -11 8.64 -11 10 C-10.13375 9.62875 -9.2675 9.2575 -8.375 8.875 C-4.41365649 7.84798502 -2.73624621 8.55645033 1 10 C1.66 9.67 2.32 9.34 3 9 C3 9.66 3 10.32 3 11 C4.32 11.66 5.64 12.32 7 13 C4 13 4 13 2 12 C1.67 12.66 1.34 13.32 1 14 C2.98 14.99 4.96 15.98 7 17 C7 17.66 7 18.32 7 19 C7.66 19.33 8.32 19.66 9 20 C8.01 20.66 7.02 21.32 6 22 C5.56171875 21.52949219 5.1234375 21.05898438 4.671875 20.57421875 C-0.97032111 15.03523354 -6.29701741 13.34802195 -14 12 C-13.67 10.02 -13.34 8.04 -13 6 Z " fill="#50363C" transform="translate(125,39)"/>
<path d="M0 0 C0.33 0.66 0.66 1.32 1 2 C1.66 2 2.32 2 3 2 C5.76081837 8.3618858 6.63176001 14.09232563 7 21 C7.66 21 8.32 21 9 21 C12.5202952 35.72324723 12.5202952 35.72324723 13 41 C12 42 12 42 9.4375 42.0625 C8.633125 42.041875 7.82875 42.02125 7 42 C6.85900879 41.08299316 6.71801758 40.16598633 6.57275391 39.22119141 C6.04149244 35.77299556 5.50821551 32.32512331 4.97363281 28.87744141 C4.74400097 27.39383962 4.51514031 25.91011823 4.28710938 24.42626953 C3.02979869 16.24823555 1.74264733 8.09209505 0 0 Z " fill="#B4AAAB" transform="translate(68,182)"/>
<path d="M0 0 C4.67657993 1.51672862 4.67657993 1.51672862 6.359375 4.03125 C7.83892812 6.19143622 7.83892812 6.19143622 10.27734375 6.609375 C11.15519531 6.65578125 12.03304687 6.7021875 12.9375 6.75 C13.90429688 6.80800781 14.87109375 6.86601563 15.8671875 6.92578125 C20.1040682 7.02615623 24.33077849 6.97754296 28.56640625 6.83984375 C31 7 31 7 33 9 C32.01 9 31.02 9 30 9 C30.33 10.98 30.66 12.96 31 15 C29.125 16.0625 29.125 16.0625 27 17 C26.34 16.67 25.68 16.34 25 16 C24.375 12.9375 24.375 12.9375 24 10 C23.01 9.67 22.02 9.34 21 9 C21.020625 9.94875 21.04125 10.8975 21.0625 11.875 C21 15 21 15 20 17 C18.125 16.875 18.125 16.875 16 16 C14.75 12.9375 14.75 12.9375 14 10 C11.03 9.67 8.06 9.34 5 9 C4.67 7.02 4.34 5.04 4 3 C2.68 2.67 1.36 2.34 0 2 C0 1.34 0 0.68 0 0 Z " fill="#DDCAB7" transform="translate(135,45)"/>
<path d="M0 0 C0.33 0 0.66 0 1 0 C1 1.65 1 3.3 1 5 C2.051875 4.896875 3.10375 4.79375 4.1875 4.6875 C8 5 8 5 10.9375 7.5 C11.618125 8.325 12.29875 9.15 13 10 C10.24921116 10.91692961 8.64051087 11.10886083 5.8125 11.0625 C3.9253125 11.0315625 3.9253125 11.0315625 2 11 C4.64 11.66 7.28 12.32 10 13 C9.67 13.99 9.34 14.98 9 16 C-0.41002278 16.3690205 -0.41002278 16.3690205 -5 14 C-5.46331872 9.45947656 -5.17990558 6.7479274 -2.5625 3.0625 C-1.716875 2.051875 -0.87125 1.04125 0 0 Z " fill="#9D7468" transform="translate(94,61)"/>
<path d="M0 0 C5.97873264 0.11935764 5.97873264 0.11935764 7.08984375 1.23046875 C7.29296875 3.41015625 7.29296875 3.41015625 7.33984375 6.10546875 C7.37851563 7.43191406 7.37851563 7.43191406 7.41796875 8.78515625 C7.08984375 11.23046875 7.08984375 11.23046875 5.8046875 13.0703125 C4.08984375 14.23046875 4.08984375 14.23046875 0.40234375 13.91796875 C-0.69078125 13.69109375 -1.78390625 13.46421875 -2.91015625 13.23046875 C-4.21781103 9.30750442 -4.10729795 6.37044442 -3.91015625 2.23046875 C-1.91015625 0.23046875 -1.91015625 0.23046875 0 0 Z " fill="#F6EDDC" transform="translate(213.91015625,135.76953125)"/>
<path d="M0 0 C3.37705625 0.53725895 6.696686 1.11064623 10 2 C10 1.34 10 0.68 10 0 C11.65 0 13.3 0 15 0 C14.175 0.78375 13.35 1.5675 12.5 2.375 C9.77011494 4.63721264 9.77011494 4.63721264 10 7 C10.66 7.66 11.32 8.32 12 9 C12.37890625 11.12890625 12.37890625 11.12890625 12.5625 13.5625 C12.58449303 16.58047788 12.58449303 16.58047788 14 19 C14.04063832 20.66617115 14.042721 22.33388095 14 24 C13.34 24.33 12.68 24.66 12 25 C11.34 24.01 10.68 23.02 10 22 C8.68 21.67 7.36 21.34 6 21 C6 15.06 6 9.12 6 3 C4.02 2.34 2.04 1.68 0 1 C0 0.67 0 0.34 0 0 Z " fill="#E6B8A8" transform="translate(105,67)"/>
<path d="M0 0 C0.33 0 0.66 0 1 0 C0.76435274 2.87289104 0.52515323 5.74531321 0.27734375 8.6171875 C0.10113006 10.76649809 -0.05487134 12.9176356 -0.18359375 15.0703125 C-0.81190093 24.48209758 -0.81190093 24.48209758 -4 28 C-7.0625 29.6875 -7.0625 29.6875 -10 31 C-10.66 31.66 -11.32 32.32 -12 33 C-13.6415049 29.7169902 -12.51888624 26.57454967 -12 23 C-11.01 23 -10.02 23 -9 23 C-9.680625 22.236875 -10.36125 21.47375 -11.0625 20.6875 C-11.701875 19.800625 -12.34125 18.91375 -13 18 C-12.505 16.515 -12.505 16.515 -12 15 C-10 15 -10 15 -7.375 17.3125 C-5 20 -5 20 -5 23 C-4.34 23 -3.68 23 -3 23 C-2.94465088 22.44538086 -2.88930176 21.89076172 -2.83227539 21.31933594 C-2.57871893 18.7959083 -2.32065495 16.27296117 -2.0625 13.75 C-1.93198242 12.44095703 -1.93198242 12.44095703 -1.79882812 11.10546875 C-1.71181641 10.26113281 -1.62480469 9.41679687 -1.53515625 8.546875 C-1.456604 7.77182617 -1.37805176 6.99677734 -1.29711914 6.19824219 C-1.00997086 4.07376962 -0.56205228 2.06703475 0 0 Z " fill="#B0A2A3" transform="translate(53,191)"/>
<path d="M0 0 C0.66 0 1.32 0 2 0 C2 0.66 2 1.32 2 2 C5.28519475 3.09506492 7.73663415 3.09960608 11.1875 3.0625 C12.27417969 3.05347656 13.36085938 3.04445313 14.48046875 3.03515625 C15.31191406 3.02355469 16.14335938 3.01195313 17 3 C16.21007484 7.24925258 14.15346563 9.08910865 11 12 C12.08201217 14.18434382 13.18591558 16.35208791 14.32421875 18.5078125 C14.99904297 19.80332031 14.99904297 19.80332031 15.6875 21.125 C16.14511719 21.99382812 16.60273437 22.86265625 17.07421875 23.7578125 C17.37972656 24.49773437 17.68523437 25.23765625 18 26 C17.67 26.66 17.34 27.32 17 28 C14.7522025 25.94766315 13.9977758 24.99332739 13 22 C12.34 21.67 11.68 21.34 11 21 C11 19.68 11 18.36 11 17 C10.34 17 9.68 17 9 17 C9 16.01 9 15.02 9 14 C6.36 14.66 3.72 15.32 1 16 C2.47089893 12.12217555 4.42749702 10.95637068 8 9 C9.34631825 8.01755155 10.68441297 7.02323436 12 6 C11.38511719 5.96261719 10.77023438 5.92523438 10.13671875 5.88671875 C9.32847656 5.82097656 8.52023438 5.75523438 7.6875 5.6875 C6.88699219 5.62949219 6.08648437 5.57148437 5.26171875 5.51171875 C2.60933741 4.91161175 1.63496121 4.14291033 0 2 C0 1.34 0 0.68 0 0 Z " fill="#CA9F8F" transform="translate(105,110)"/>
<path d="M0 0 C0.33 0 0.66 0 1 0 C3.40282766 17.65649252 3.20803776 35.22397359 3 53 C2.01 53 1.02 53 0 53 C0 35.51 0 18.02 0 0 Z " fill="#BDB9B3" transform="translate(189,171)"/>
<path d="M0 0 C2 1.3125 2 1.3125 4 3 C4 3.99 4 4.98 4 6 C4.66 6 5.32 6 6 6 C6.185625 4.7934375 6.185625 4.7934375 6.375 3.5625 C6.58125 2.716875 6.7875 1.87125 7 1 C7.66 0.67 8.32 0.34 9 0 C8 8.57142857 8 8.57142857 7 12 C5.68 12.33 4.36 12.66 3 13 C3.99 14.485 3.99 14.485 5 16 C5 16.99 5 17.98 5 19 C2.83125748 18.49396008 1.00032373 18.00016187 -1 17 C-1.02684679 14.35409986 -1.04676357 11.70846904 -1.0625 9.0625 C-1.07087891 8.30775391 -1.07925781 7.55300781 -1.08789062 6.77539062 C-1.09652441 4.85005687 -1.05224333 2.92464419 -1 1 C-0.67 0.67 -0.34 0.34 0 0 Z " fill="#AFA29E" transform="translate(160,179)"/>
<path d="M0 0 C0.99 0.66 1.98 1.32 3 2 C3 2.99 3 3.98 3 5 C0.03 4.67 -2.94 4.34 -6 4 C-6 4.66 -6 5.32 -6 6 C-4.02 6.66 -2.04 7.32 0 8 C0 8.66 0 9.32 0 10 C-1.32 9.67 -2.64 9.34 -4 9 C-4 9.66 -4 10.32 -4 11 C-9.41538462 11.36923077 -9.41538462 11.36923077 -12.375 9.5 C-12.91125 9.005 -13.4475 8.51 -14 8 C-13.36832533 5.15746398 -12.63251627 3.44861286 -10.2265625 1.7421875 C-4.06802098 -1.53168401 -4.06802098 -1.53168401 0 0 Z " fill="#BB8F82" transform="translate(128,66)"/>
<path d="M0 0 C0.0825 0.61875 0.165 1.2375 0.25 1.875 C0.77260299 4.13953908 0.77260299 4.13953908 2.75 4.875 C6.08201026 6.54100513 7.71412829 9.07916393 10 12 C6.52176885 13.15941038 4.54104422 12.70820884 1 12 C1 11.34 1 10.68 1 10 C0.01 10.33 -0.98 10.66 -2 11 C-1.67 13.97 -1.34 16.94 -1 20 C-3.72200894 16.8243229 -5.79925674 14.03886368 -7 10 C-6.67 9.34 -6.34 8.68 -6 8 C-5.34 8 -4.68 8 -4 8 C-3.71125 7.4225 -3.4225 6.845 -3.125 6.25 C-2.08333333 4.16666667 -1.04166667 2.08333333 0 0 Z " fill="#C6BAB6" transform="translate(96,107)"/>
<path d="M0 0 C0.66 0 1.32 0 2 0 C2.05791844 3.12492251 2.09356746 6.24970766 2.125 9.375 C2.14175781 10.26445312 2.15851563 11.15390625 2.17578125 12.0703125 C2.18222656 12.92109375 2.18867188 13.771875 2.1953125 14.6484375 C2.20578613 15.43395996 2.21625977 16.21948242 2.22705078 17.02880859 C2 19 2 19 0 21 C1.65 21.33 3.3 21.66 5 22 C5 22.33 5 22.66 5 23 C-0.28 23 -5.56 23 -11 23 C-11.33 22.01 -11.66 21.02 -12 20 C-11.37351563 19.79503906 -10.74703125 19.59007812 -10.1015625 19.37890625 C-9.28429687 19.10949219 -8.46703125 18.84007812 -7.625 18.5625 C-6.81289062 18.29566406 -6.00078125 18.02882812 -5.1640625 17.75390625 C-2.98968201 17.04820271 -2.98968201 17.04820271 -1 16 C-1.2784375 14.2984375 -1.2784375 14.2984375 -1.5625 12.5625 C-1.706875 11.386875 -1.85125 10.21125 -2 9 C-1.67 8.67 -1.34 8.34 -1 8 C-0.76924918 6.65252916 -0.58846937 5.29622435 -0.4375 3.9375 C-0.293125 2.638125 -0.14875 1.33875 0 0 Z " fill="#D3BCA8" transform="translate(221,139)"/>
<path d="M0 0 C0.66 0.33 1.32 0.66 2 1 C1.67 2.98 1.34 4.96 1 7 C1.66 7.33 2.32 7.66 3 8 C2.08978328 13.72136223 2.08978328 13.72136223 1.43359375 15.7578125 C0.8152903 18.95516548 1.20282701 21.88986675 1.5 25.125 C2.10896309 31.78207381 2.10896309 31.78207381 1 34 C-1.14453125 34.37890625 -1.14453125 34.37890625 -3.8125 34.5625 C-6.99455538 34.79281125 -9.9256035 35.13286253 -13 36 C-13 35.34 -13 34.68 -13 34 C-10.3055689 32.31598056 -7.95107532 31.7841152 -4.84375 31.43359375 C-2.94109375 31.21896484 -2.94109375 31.21896484 -1 31 C-1.00523682 30.09644775 -1.01047363 29.19289551 -1.01586914 28.26196289 C-1.03287686 24.92048511 -1.04543333 21.57905308 -1.05493164 18.23754883 C-1.05997101 16.78929927 -1.06680253 15.34105483 -1.07543945 13.89282227 C-1.08752247 11.81525412 -1.09323211 9.73775303 -1.09765625 7.66015625 C-1.10551147 5.78275757 -1.10551147 5.78275757 -1.11352539 3.86743164 C-1 1 -1 1 0 0 Z " fill="#C6B9AF" transform="translate(203,130)"/>
<path d="M0 0 C0 4.62 0 9.24 0 14 C-2.64 14 -5.28 14 -8 14 C-8.91353383 6.23496241 -8.91353383 6.23496241 -6.734375 3.2890625 C-2.81791908 0 -2.81791908 0 0 0 Z " fill="#C6BBBB" transform="translate(185,210)"/>
<path d="M0 0 C2.2601504 1.1300752 4.45079737 2.26833177 6.625 3.5625 C11.04758102 5.44619192 15.23750523 5.7270507 20 6 C17.66666667 8.33333333 15.33333333 10.66666667 13 13 C9.93782278 12.88876707 8.89038336 11.89709828 6.640625 9.78515625 C5.85171875 8.88667969 5.0628125 7.98820312 4.25 7.0625 C3.45078125 6.16660156 2.6515625 5.27070312 1.828125 4.34765625 C0 2 0 2 0 0 Z " fill="#B17E6B" transform="translate(98,109)"/>
<path d="M0 0 C0.66 0.33 1.32 0.66 2 1 C-3.07533808 11.39235893 -3.07533808 11.39235893 -7.125 14.5625 C-10.09200379 16.67893857 -10.09200379 16.67893857 -10.875 19.3125 C-10.91625 19.869375 -10.9575 20.42625 -11 21 C-11.66 20.67 -12.32 20.34 -13 20 C-10.48110224 8.30658033 -10.48110224 8.30658033 -5 4 C-4.071875 3.236875 -3.14375 2.47375 -2.1875 1.6875 C-1.465625 1.130625 -0.74375 0.57375 0 0 Z " fill="#463039" transform="translate(96,40)"/>
<path d="M0 0 C2 1.375 2 1.375 4 3 C4 3.66 4 4.32 4 5 C4.66 5.33 5.32 5.66 6 6 C5.67 7.32 5.34 8.64 5 10 C0.38 10 -4.24 10 -9 10 C-8 7 -8 7 -6.40625 5.9375 C-4.5 5 -4.5 5 -2.59375 4.0625 C-0.66242402 3.01050642 -0.66242402 3.01050642 0 0 Z " fill="#5E3433" transform="translate(51,214)"/>
<path d="M0 0 C0.33 0 0.66 0 1 0 C0.63209758 4.87470701 -0.22522429 8.8719538 -2 13.4375 C-3.90374944 18.37621231 -4.65438821 22.72942013 -5 28 C-7 28 -9 28 -11 28 C-11 25.69 -11 23.38 -11 21 C-9.35 20.67 -7.7 20.34 -6 20 C-5.87882812 19.28972656 -5.75765625 18.57945312 -5.6328125 17.84765625 C-5.46523438 16.92855469 -5.29765625 16.00945312 -5.125 15.0625 C-4.96257813 14.14597656 -4.80015625 13.22945312 -4.6328125 12.28515625 C-4.42398437 11.53105469 -4.21515625 10.77695313 -4 10 C-3.34 9.67 -2.68 9.34 -2 9 C-1.31270746 6.88153715 -1.31270746 6.88153715 -0.875 4.4375 C-0.62363281 3.19806641 -0.62363281 3.19806641 -0.3671875 1.93359375 C-0.24601562 1.29550781 -0.12484375 0.65742188 0 0 Z " fill="#BDB6B3" transform="translate(33,172)"/>
<path d="M0 0 C1.47906892 -0.02689216 2.95827483 -0.04634621 4.4375 -0.0625 C5.26121094 -0.07410156 6.08492187 -0.08570313 6.93359375 -0.09765625 C9 0 9 0 10 1 C10.04092937 3.33297433 10.04241723 5.66705225 10 8 C7.69 8 5.38 8 3 8 C2.67 8.99 2.34 9.98 2 11 C1.93941406 10.37351562 1.87882813 9.74703125 1.81640625 9.1015625 C1.73261719 8.28429688 1.64882812 7.46703125 1.5625 6.625 C1.48128906 5.81289063 1.40007812 5.00078125 1.31640625 4.1640625 C1.10909886 1.95727195 1.10909886 1.95727195 0 0 Z " fill="#C7A792" transform="translate(140,54)"/>
<path d="M0 0 C1.32 1.32 2.64 2.64 4 4 C4.598125 3.34 5.19625 2.68 5.8125 2 C8 0 8 0 11 0 C10.690625 0.495 10.38125 0.99 10.0625 1.5 C9.03961134 3.90679685 8.7539388 5.6157925 8.5 8.1875 C8.335 9.445625 8.17 10.70375 8 12 C7.01 12.495 7.01 12.495 6 13 C6 12.34 6 11.68 6 11 C5.071875 10.566875 5.071875 10.566875 4.125 10.125 C2 9 2 9 0 7 C-0.125 3.375 -0.125 3.375 0 0 Z " fill="#4A272A" transform="translate(81,64)"/>
<path d="M0 0 C1.65 0.33 3.3 0.66 5 1 C3.75794193 4.72617422 1.8889325 6.39291457 -1 9 C-1.66 9 -2.32 9 -3 9 C-3 8.34 -3 7.68 -3 7 C-3.78375 6.896875 -4.5675 6.79375 -5.375 6.6875 C-8 6 -8 6 -10 3 C-6.7 2.34 -3.4 1.68 0 1 C0 0.67 0 0.34 0 0 Z " fill="#D8978E" transform="translate(117,98)"/>
<path d="M0 0 C0.33 0 0.66 0 1 0 C1.33 3.3 1.66 6.6 2 10 C3.98 9.67 5.96 9.34 8 9 C8.33 9.99 8.66 10.98 9 12 C4.71 12 0.42 12 -4 12 C-3.27272727 3.27272727 -3.27272727 3.27272727 0 0 Z " fill="#C99081" transform="translate(108,80)"/>
<path d="M0 0 C-0.309375 0.556875 -0.61875 1.11375 -0.9375 1.6875 C-2.07059179 4.15364096 -2.54416089 6.33008521 -3 9 C-3.33333333 10.66666667 -3.66666667 12.33333333 -4 14 C-5.32 14 -6.64 14 -8 14 C-7.67 11.69 -7.34 9.38 -7 7 C-7.66 7 -8.32 7 -9 7 C-7.51191431 2.53574293 -4.79253508 0 0 0 Z " fill="#B1A5A5" transform="translate(181,210)"/>
<path d="M0 0 C2.0625 0.4375 2.0625 0.4375 4 1 C4 2.32 4 3.64 4 5 C5.32 5.33 6.64 5.66 8 6 C7.67 6.99 7.34 7.98 7 9 C7 8.34 7 7.68 7 7 C6.278125 7.433125 5.55625 7.86625 4.8125 8.3125 C2.20833333 9.875 -0.39583333 11.4375 -3 13 C-2.855625 12.319375 -2.71125 11.63875 -2.5625 10.9375 C-2.13799718 8.72065192 -1.79831018 6.48732633 -1.5 4.25 C-1 1 -1 1 0 0 Z " fill="#BBAFAF" transform="translate(174,203)"/>
<path d="M0 0 C3.25 -0.3125 3.25 -0.3125 7 0 C10.97425241 3.52005213 13.38799738 8.96620041 15 14 C14.67 14.66 14.34 15.32 14 16 C11.7522025 13.94766315 10.9977758 12.99332739 10 10 C9.34 9.67 8.68 9.34 8 9 C8 7.68 8 6.36 8 5 C7.34 5 6.68 5 6 5 C6 4.01 6 3.02 6 2 C3.36 2.66 0.72 3.32 -2 4 C-1.34 2.68 -0.68 1.36 0 0 Z " fill="#CDBDB4" transform="translate(108,122)"/>
<path d="M0 0 C1.52519276 0.08937803 3.04681929 0.24537146 4.5625 0.4375 C5.38878906 0.53933594 6.21507813 0.64117187 7.06640625 0.74609375 C7.70449219 0.82988281 8.34257813 0.91367187 9 1 C9 1.33 9 1.66 9 2 C7.700625 1.979375 6.40125 1.95875 5.0625 1.9375 C3.70834367 1.91600546 2.35243917 1.92851801 1 2 C0.67 2.33 0.34 2.66 0 3 C-2.67058851 3.14115161 -5.32432238 3.04247107 -8 3 C-8 3.66 -8 4.32 -8 5 C-9.95927063 6.7143618 -11.95880212 8.38405168 -14 10 C-13.2236068 13.0745356 -13.2236068 13.0745356 -11 15 C-12.65 15 -14.3 15 -16 15 C-16.53789042 11.84949894 -16.52024336 9.78275148 -14.72265625 7.078125 C-11.63486958 3.68926163 -9.26488674 1.65264055 -4.625 1.125 C-2.830625 1.063125 -2.830625 1.063125 -1 1 C-0.67 0.67 -0.34 0.34 0 0 Z " fill="#B59087" transform="translate(111,51)"/>
<path d="M0 0 C0.99 0.33 1.98 0.66 3 1 C3 7.6 3 14.2 3 21 C2.34 21 1.68 21 1 21 C0.67 14.07 0.34 7.14 0 0 Z " fill="#ABA29C" transform="translate(185,171)"/>
<path d="M0 0 C1.36365959 3.68188089 0.44698622 5.47297109 -1 9 C-0.67 9.99 -0.34 10.98 0 12 C0.66 12.33 1.32 12.66 2 13 C-2.31392226 12.5206753 -4.16569547 11.2542015 -7 8 C-5.38405168 5.95880212 -3.7143618 3.95927063 -2 2 C-1.34 2 -0.68 2 0 2 C0 1.34 0 0.68 0 0 Z " fill="#D1AD9F" transform="translate(103,54)"/>
<path d="M0 0 C0.99 0.66 1.98 1.32 3 2 C3 2.99 3 3.98 3 5 C-0.96 4.67 -4.92 4.34 -9 4 C-6.5698153 -0.8603694 -4.97784868 -1.71113548 0 0 Z " fill="#A27D72" transform="translate(128,66)"/>
<path d="M0 0 C0.33 0 0.66 0 1 0 C1.33895656 1.72807318 1.67091525 3.45751974 2 5.1875 C2.185625 6.15042969 2.37125 7.11335937 2.5625 8.10546875 C2.96877612 10.7934206 3.07933572 13.28771019 3 16 C2.34 15.67 1.68 15.34 1 15 C0.01 17.475 0.01 17.475 -1 20 C-1.33 20 -1.66 20 -2 20 C-2.26404456 13.13484138 -1.25841946 6.74153283 0 0 Z " fill="#4F4046" transform="translate(54,191)"/>
<path d="M0 0 C-0.10828125 0.85271484 -0.10828125 0.85271484 -0.21875 1.72265625 C-0.79583101 6.52364968 -1.10285838 11.16565627 -1 16 C-1.66 16.33 -2.32 16.66 -3 17 C-3.66 11.72 -4.32 6.44 -5 1 C-2 0 -2 0 0 0 Z " fill="#DDDBDA" transform="translate(63,160)"/>
<path d="M0 0 C0.33 2.31 0.66 4.62 1 7 C0.01 7 -0.98 7 -2 7 C-2 6.34 -2 5.68 -2 5 C-3.65 5.66 -5.3 6.32 -7 7 C-7.6875 5.1875 -7.6875 5.1875 -8 3 C-5.85915306 -0.33020635 -3.75910189 -0.30479204 0 0 Z " fill="#E4DCD7" transform="translate(114,124)"/>
<path d="M0 0 C0 3 0 3 -1.53125 4.60546875 C-2.1809375 5.12753906 -2.830625 5.64960937 -3.5 6.1875 C-4.1496875 6.71730469 -4.799375 7.24710937 -5.46875 7.79296875 C-5.9740625 8.19128906 -6.479375 8.58960937 -7 9 C-6.34 11.31 -5.68 13.62 -5 16 C-5.66 16 -6.32 16 -7 16 C-8.38232443 14.37373596 -9.71937515 12.7074998 -11 11 C-9.13916819 6.43250373 -5.96311877 3.11420254 -1.6875 0.6875 C-1.130625 0.460625 -0.57375 0.23375 0 0 Z " fill="#E8DFD7" transform="translate(126,113)"/>
<path d="M0 0 C0.66 0 1.32 0 2 0 C0.92126279 7.11966557 -1.61429028 12.19652917 -7 17 C-7 15.68 -7 14.36 -7 13 C-6.34 13 -5.68 13 -5 13 C-5.04125 12.236875 -5.0825 11.47375 -5.125 10.6875 C-5 8 -5 8 -3 5 C-2.34 5 -1.68 5 -1 5 C-0.67 3.35 -0.34 1.7 0 0 Z " fill="#E9D7CE" transform="translate(141,77)"/>
<path d="M0 0 C0.33 0 0.66 0 1 0 C1 5.94 1 11.88 1 18 C-8.10714286 21.34821429 -8.10714286 21.34821429 -12 20 C-11.37351563 19.79503906 -10.74703125 19.59007812 -10.1015625 19.37890625 C-9.28429687 19.10949219 -8.46703125 18.84007812 -7.625 18.5625 C-6.81289062 18.29566406 -6.00078125 18.02882812 -5.1640625 17.75390625 C-2.98968201 17.04820271 -2.98968201 17.04820271 -1 16 C-1.2784375 14.2984375 -1.2784375 14.2984375 -1.5625 12.5625 C-1.706875 11.386875 -1.85125 10.21125 -2 9 C-1.67 8.67 -1.34 8.34 -1 8 C-0.76924918 6.65252916 -0.58846937 5.29622435 -0.4375 3.9375 C-0.293125 2.638125 -0.14875 1.33875 0 0 Z " fill="#D9C6B3" transform="translate(221,139)"/>
<path d="M0 0 C0.99 0.495 0.99 0.495 2 1 C2.40729228 3.32156597 2.74438677 5.6568787 3 8 C4.32 8 5.64 8 7 8 C6.34 10.31 5.68 12.62 5 15 C3.68 15.33 2.36 15.66 1 16 C0.67 10.72 0.34 5.44 0 0 Z " fill="#B18578" transform="translate(134,66)"/>
<path d="M0 0 C0.99 0.33 1.98 0.66 3 1 C3 1.66 3 2.32 3 3 C4.65 3.33 6.3 3.66 8 4 C8 7.3 8 10.6 8 14 C2 6.8 2 6.8 2 2 C1.34 2 0.68 2 0 2 C0 1.34 0 0.68 0 0 Z M4 12 C5.485 12.99 5.485 12.99 7 14 C6.67 14.66 6.34 15.32 6 16 C5.34 14.68 4.68 13.36 4 12 Z " fill="#361E27" transform="translate(133,51)"/>
<path d="M0 0 C0.33 0 0.66 0 1 0 C0 8.57142857 0 8.57142857 -1 12 C-2.65 12 -4.3 12 -6 12 C-4.68 11.67 -3.36 11.34 -2 11 C-2 10.34 -2 9.68 -2 9 C-3.32 8.67 -4.64 8.34 -6 8 C-6 6.02 -6 4.04 -6 2 C-5.01 2.495 -5.01 2.495 -4 3 C-4 3.99 -4 4.98 -4 6 C-3.34 6 -2.68 6 -2 6 C-1.855625 5.195625 -1.71125 4.39125 -1.5625 3.5625 C-1 1 -1 1 0 0 Z " fill="#C2B6B3" transform="translate(168,179)"/>
<path d="M0 0 C0.33 0 0.66 0 1 0 C1 1.98 1 3.96 1 6 C3.475 6.99 3.475 6.99 6 8 C6 8.99 6 9.98 6 11 C3.36 11 0.72 11 -2 11 C-1.40049704 7.31733897 -0.75241109 3.65456815 0 0 Z " fill="#B1A4A7" transform="translate(58,213)"/>
<path d="M0 0 C0.33 0.66 0.66 1.32 1 2 C1.66 2 2.32 2 3 2 C3.50833591 3.24663331 4.00631145 4.49749387 4.5 5.75 C4.7784375 6.44609375 5.056875 7.1421875 5.34375 7.859375 C6 10 6 10 6 14 C5.34 14 4.68 14 4 14 C3.67 15.32 3.34 16.64 3 18 C1.73638028 12.01314152 0.67581523 6.08233706 0 0 Z " fill="#BAB5B4" transform="translate(68,182)"/>
<path d="M0 0 C2.86867231 1.38264837 5.56024032 2.92148553 8.25 4.625 C8.95640625 5.07101563 9.6628125 5.51703125 10.390625 5.9765625 C10.92171875 6.31429687 11.4528125 6.65203125 12 7 C11.01 7.495 11.01 7.495 10 8 C10 8.66 10 9.32 10 10 C6.4628562 9.43867066 5.00738321 8.30442253 2.75 5.5625 C1.96882813 4.63630859 1.96882813 4.63630859 1.171875 3.69140625 C0 2 0 2 0 0 Z " fill="#986756" transform="translate(98,109)"/>
<path d="M0 0 C0.33 0 0.66 0 1 0 C1 5.61 1 11.22 1 17 C-0.98 17.66 -2.96 18.32 -5 19 C-5 16.69 -5 14.38 -5 12 C-4.67 12 -4.34 12 -4 12 C-4 13.65 -4 15.3 -4 17 C-3.34 17 -2.68 17 -2 17 C-2.020625 16.05125 -2.04125 15.1025 -2.0625 14.125 C-2 11 -2 11 -1 9 C-0.77532169 7.46331135 -0.59203195 5.92031946 -0.4375 4.375 C-0.35371094 3.55773438 -0.26992187 2.74046875 -0.18359375 1.8984375 C-0.12300781 1.27195313 -0.06242188 0.64546875 0 0 Z " fill="#4C3232" transform="translate(141,56)"/>
<path d="M0 0 C0 0.33 0 0.66 0 1 C-0.969375 1.309375 -1.93875 1.61875 -2.9375 1.9375 C-5.84065792 2.69523342 -5.84065792 2.69523342 -7 4 C-7.78555139 9.06244229 -8.10659431 13.88347331 -8 19 C-10.67415275 14.29526653 -11.32588309 9.36892383 -11 4 C-7.84173441 -0.11531577 -5.02200181 -0.46716296 0 0 Z " fill="#CCC7C2" transform="translate(200,164)"/>
<path d="M0 0 C1.2065625 0.0309375 1.2065625 0.0309375 2.4375 0.0625 C2.5625 5.8125 2.5625 5.8125 1.4375 8.0625 C0.1175 7.7325 -1.2025 7.4025 -2.5625 7.0625 C-2.94383299 5.0710944 -3.27575582 3.06970923 -3.5625 1.0625 C-2.5625 0.0625 -2.5625 0.0625 0 0 Z " fill="#F7D0AC" transform="translate(153.5625,53.9375)"/>
<path d="M0 0 C0.66 0 1.32 0 2 0 C2.72255063 2.78868716 3.4284512 5.57981708 4.125 8.375 C4.33253906 9.1690625 4.54007812 9.963125 4.75390625 10.78125 C5.25846447 12.83428002 5.63829026 14.91705081 6 17 C5.34 17.66 4.68 18.32 4 19 C3 18 3 18 2.5625 14.6875 C2.23475143 11.17589137 2.23475143 11.17589137 0.9375 9 C-0.45865464 6.02153677 -0.12448052 3.23649341 0 0 Z " fill="#C08E7D" transform="translate(96,91)"/>
<path d="M0 0 C0.99 0.66 1.98 1.32 3 2 C2.67 2.99 2.34 3.98 2 5 C1.34 5 0.68 5 0 5 C0 5.99 0 6.98 0 8 C-0.99 7.67 -1.98 7.34 -3 7 C-3.33 6.34 -3.66 5.68 -4 5 C-6.32156597 4.59270772 -8.6568787 4.25561323 -11 4 C-10.67 3.34 -10.34 2.68 -10 2 C-6.7 2 -3.4 2 0 2 C0 1.34 0 0.68 0 0 Z " fill="#BC8E81" transform="translate(106,69)"/>
<path d="M0 0 C0.0825 0.61875 0.165 1.2375 0.25 1.875 C0.77260299 4.13953908 0.77260299 4.13953908 2.75 4.875 C6.08201026 6.54100513 7.71412829 9.07916393 10 12 C9.01 12.33 8.02 12.66 7 13 C1.44444444 8.88888889 1.44444444 8.88888889 0 6 C-0.039992 4.00039988 -0.04346799 1.99952758 0 0 Z " fill="#C0A298" transform="translate(96,107)"/>
<path d="M0 0 C0.99 0 1.98 0 3 0 C3.33 1.32 3.66 2.64 4 4 C3.01 3.67 2.02 3.34 1 3 C1 11.25 1 19.5 1 28 C-1.33523916 24.49714126 -1.18495942 23.34370062 -0.9765625 19.23828125 C-0.925 18.12001953 -0.8734375 17.00175781 -0.8203125 15.84960938 C-0.75585938 14.68236328 -0.69140625 13.51511719 -0.625 12.3125 C-0.56828125 11.13365234 -0.5115625 9.95480469 -0.453125 8.74023438 C-0.31155328 5.82621648 -0.16013058 2.91304743 0 0 Z " fill="#C3B9B7" transform="translate(184,168)"/>
<path d="M0 0 C0.66 0 1.32 0 2 0 C3.29243536 4.1196377 4.26252625 7.66831683 4 12 C2.68 12 1.36 12 0 12 C0 8.04 0 4.08 0 0 Z " fill="#ACA0A0" transform="translate(75,212)"/>
<path d="M0 0 C3.37705625 0.53725895 6.696686 1.11064623 10 2 C10 1.34 10 0.68 10 0 C11.65 0 13.3 0 15 0 C14.21625 0.763125 13.4325 1.52625 12.625 2.3125 C9.92742283 4.90891805 9.92742283 4.90891805 8 8 C7.34 8 6.68 8 6 8 C6 6.35 6 4.7 6 3 C4.02 2.34 2.04 1.68 0 1 C0 0.67 0 0.34 0 0 Z " fill="#DAB0A1" transform="translate(105,67)"/>
<path d="M0 0 C1.11375 0.1546875 1.11375 0.1546875 2.25 0.3125 C-3.90034169 7.79541572 -3.90034169 7.79541572 -7.75 10.3125 C-7.17805721 5.30800055 -5.48471867 0.62326349 0 0 Z " fill="#47272B" transform="translate(100.75,51.6875)"/>
<path d="M0 0 C0.99 0.33 1.98 0.66 3 1 C2.979375 1.94875 2.95875 2.8975 2.9375 3.875 C2.92776526 8.61581985 3.46975991 13.29411917 4 18 C2.015625 16.453125 2.015625 16.453125 0 14 C-0.390625 10.546875 -0.390625 10.546875 -0.25 6.75 C-0.21390625 5.48671875 -0.1778125 4.2234375 -0.140625 2.921875 C-0.09421875 1.95765625 -0.0478125 0.9934375 0 0 Z " fill="#C9BCB4" transform="translate(189,131)"/>
<path d="M0 0 C1.32 0.33 2.64 0.66 4 1 C5.45184478 5.53701494 6.23509196 9.18061476 6 14 C5.34 14 4.68 14 4 14 C0.74031891 4.58997722 0.74031891 4.58997722 0 0 Z " fill="#A58375" transform="translate(85,75)"/>
<path d="M0 0 C0.33 0.66 0.66 1.32 1 2 C0.00390625 4.3828125 0.00390625 4.3828125 -1.4375 7.125 C-1.91058594 8.03507812 -2.38367188 8.94515625 -2.87109375 9.8828125 C-3.24363281 10.58148438 -3.61617188 11.28015625 -4 12 C-3.34 12 -2.68 12 -2 12 C-2.33 12.99 -2.66 13.98 -3 15 C-3.99 14.34 -4.98 13.68 -6 13 C-6.1875 9.875 -6.1875 9.875 -6 7 C-5.01 7 -4.02 7 -3 7 C-3.061875 6.21625 -3.12375 5.4325 -3.1875 4.625 C-3.125625 3.75875 -3.06375 2.8925 -3 2 C-2.01 1.34 -1.02 0.68 0 0 Z " fill="#361B28" transform="translate(88,54)"/>
<path d="M0 0 C3.88862987 1.26117725 5.89375599 2.45264167 8 6 C8 6.66 8 7.32 8 8 C10.31 8 12.62 8 15 8 C14.67 8.66 14.34 9.32 14 10 C11.03 9.67 8.06 9.34 5 9 C4.67 7.02 4.34 5.04 4 3 C2.68 2.67 1.36 2.34 0 2 C0 1.34 0 0.68 0 0 Z " fill="#C3B6AF" transform="translate(135,45)"/>
<path d="M0 0 C2.9719385 1.12451727 5.33440687 2.22293791 8 4 C7.05125 4.45375 6.1025 4.9075 5.125 5.375 C1.99686321 6.80238254 1.99686321 6.80238254 0 9 C-1.53445094 5.93109813 -0.54984289 3.29905734 0 0 Z " fill="#A79595" transform="translate(41,215)"/>
<path d="M0 0 C0.66 0.33 1.32 0.66 2 1 C1.67 2.98 1.34 4.96 1 7 C1.66 7.33 2.32 7.66 3 8 C2.625 10.9375 2.625 10.9375 2 14 C1.01 14.495 1.01 14.495 0 15 C-1.18893275 10.39288558 -1.33243079 5.73225005 -1 1 C-0.67 0.67 -0.34 0.34 0 0 Z " fill="#D0C2B9" transform="translate(203,130)"/>
<path d="M0 0 C0.33 0.66 0.66 1.32 1 2 C0.38125 2.5775 -0.2375 3.155 -0.875 3.75 C-3.63621909 6.67364374 -4.73878909 9.21636728 -6 13 C-8.0625 13.6875 -8.0625 13.6875 -10 14 C-9.09846541 12.03465459 -8.17819891 10.07789375 -7.25 8.125 C-6.73953125 7.03445312 -6.2290625 5.94390625 -5.703125 4.8203125 C-3.97462191 1.95797481 -3.10000819 1.06478542 0 0 Z " fill="#E2D4CC" transform="translate(134,100)"/>
<path d="M0 0 C0.99 0 1.98 0 3 0 C3.33 1.32 3.66 2.64 4 4 C3.34 4 2.68 4 2 4 C1.67 7.63 1.34 11.26 1 15 C-1 13 -1 13 -1.23046875 10.9765625 C-1.21628906 10.20054687 -1.20210937 9.42453125 -1.1875 8.625 C-1.18105469 7.85414063 -1.17460937 7.08328125 -1.16796875 6.2890625 C-1.00595151 4.08110656 -0.60634894 2.12464668 0 0 Z " fill="#CFBCAB" transform="translate(221,124)"/>
<path d="M0 0 C0.99 0 1.98 0 3 0 C3.309375 0.94875 3.61875 1.8975 3.9375 2.875 C4.87394742 5.86080408 4.87394742 5.86080408 6 8 C6.039992 9.99960012 6.04346799 12.00047242 6 14 C5.34 13.67 4.68 13.34 4 13 C3.59270772 10.67843403 3.25561323 8.3431213 3 6 C2.01 6 1.02 6 0 6 C0 4.02 0 2.04 0 0 Z " fill="#E4D8D3" transform="translate(82,74)"/>
<path d="M0 0 C-0.33 2.31 -0.66 4.62 -1 7 C-2.32 7.33 -3.64 7.66 -5 8 C-5 5.69 -5 3.38 -5 1 C-2 0 -2 0 0 0 Z " fill="#B4ACA5" transform="translate(27,192)"/>
<path d="M0 0 C1.32 0.33 2.64 0.66 4 1 C4 3.31 4 5.62 4 8 C2.68 8 1.36 8 0 8 C0 5.36 0 2.72 0 0 Z " fill="#D1A685" transform="translate(156,54)"/>
<path d="M0 0 C1.98 0 3.96 0 6 0 C5.67 1.65 5.34 3.3 5 5 C4.01 5.33 3.02 5.66 2 6 C1.34 5.67 0.68 5.34 0 5 C0 3.35 0 1.7 0 0 Z " fill="#F4CAA5" transform="translate(160,56)"/>
<path d="M0 0 C0.98484375 0.00902344 1.9696875 0.01804688 2.984375 0.02734375 C4.10585937 0.04474609 4.10585937 0.04474609 5.25 0.0625 C5.25 0.7225 5.25 1.3825 5.25 2.0625 C1.29 2.0625 -2.67 2.0625 -6.75 2.0625 C-6.75 2.7225 -6.75 3.3825 -6.75 4.0625 C-7.74 3.7325 -8.73 3.4025 -9.75 3.0625 C-9.75 2.4025 -9.75 1.7425 -9.75 1.0625 C-6.43929162 0.06140485 -3.44915231 -0.04106134 0 0 Z " fill="#6B5A5D" transform="translate(109.75,36.9375)"/>
<path d="M0 0 C1.20628008 2.33214148 2.1654738 4.49642139 3 7 C0.69 7.66 -1.62 8.32 -4 9 C-4.33 8.01 -4.66 7.02 -5 6 C-4.34 6 -3.68 6 -3 6 C-2.690625 5.38125 -2.38125 4.7625 -2.0625 4.125 C-1.375 2.75 -0.6875 1.375 0 0 Z " fill="#BFB3AC" transform="translate(95,109)"/>
<path d="M0 0 C0.33 0.66 0.66 1.32 1 2 C1.66 2 2.32 2 3 2 C4.15837626 6.05431692 3.83691257 8.21812119 2 12 C1.67 12 1.34 12 1 12 C1 10.35 1 8.7 1 7 C0.34 7 -0.32 7 -1 7 C-0.67 4.69 -0.34 2.38 0 0 Z " fill="#C2B5AC" transform="translate(199,81)"/>
<path d="M0 0 C1.98 0 3.96 0 6 0 C6 1.98 6 3.96 6 6 C4.35 6 2.7 6 1 6 C1.20625 5.38125 1.4125 4.7625 1.625 4.125 C1.74875 3.42375 1.8725 2.7225 2 2 C1.34 1.34 0.68 0.68 0 0 Z " fill="#FCFAEF" transform="translate(214,138)"/>
<path d="M0 0 C1.22589844 0.01353516 1.22589844 0.01353516 2.4765625 0.02734375 C3.41628906 0.04474609 3.41628906 0.04474609 4.375 0.0625 C4.705 1.0525 5.035 2.0425 5.375 3.0625 C1.415 3.0625 -2.545 3.0625 -6.625 3.0625 C-6.625 2.4025 -6.625 1.7425 -6.625 1.0625 C-4.21954362 -0.14022819 -2.67503047 -0.03821472 0 0 Z " fill="#A06558" transform="translate(111.625,88.9375)"/>
<path d="M0 0 C0.66 0 1.32 0 2 0 C1.34 1.65 0.68 3.3 0 5 C-2.64 5 -5.28 5 -8 5 C-8 4.34 -8 3.68 -8 3 C-6.68 3 -5.36 3 -4 3 C-4 2.34 -4 1.68 -4 1 C-2.68 1.33 -1.36 1.66 0 2 C0 1.34 0 0.68 0 0 Z " fill="#C8A195" transform="translate(128,74)"/>
<path d="M0 0 C2.97 0 5.94 0 9 0 C9 0.99 9 1.98 9 3 C6.03 3 3.06 3 0 3 C0 2.01 0 1.02 0 0 Z " fill="#6D453B" transform="translate(94,67)"/>
<path d="M0 0 C0.66 1.32 1.32 2.64 2 4 C0.35 4.66 -1.3 5.32 -3 6 C-3 7.65 -3 9.3 -3 11 C-3.33 11 -3.66 11 -4 11 C-4.8125 7.75 -4.8125 7.75 -5 4 C-2.5625 1.5625 -2.5625 1.5625 0 0 Z " fill="#CABEB3" transform="translate(186,36)"/>
<path d="M0 0 C0.680625 0.474375 1.36125 0.94875 2.0625 1.4375 C5.41841956 3.2225636 8.24161481 3.63153086 12 4 C12 4.33 12 4.66 12 5 C5.88909517 5.09945415 0.02596573 5.0712828 -6 4 C-6 3.67 -6 3.34 -6 3 C-4.02 3 -2.04 3 0 3 C0 2.01 0 1.02 0 0 Z " fill="#DAC4B4" transform="translate(150,59)"/>
<path d="M0 0 C1.46726798 3.81489674 0.43336419 6.29011622 -1 10 C-1.66 8.68 -2.32 7.36 -3 6 C-3.66 6 -4.32 6 -5 6 C-3.86695008 2.60085025 -2.87481525 1.94745549 0 0 Z " fill="#C6B9B6" transform="translate(85,50)"/>
<path d="M0 0 C2.4375 1.0625 2.4375 1.0625 5 3 C5.9375 6.5625 5.9375 6.5625 6 10 C5.34 10.66 4.68 11.32 4 12 C3.67 9.69 3.34 7.38 3 5 C2.01 5 1.02 5 0 5 C0 3.35 0 1.7 0 0 Z " fill="#58484D" transform="translate(134,45)"/>
<path d="M0 0 C1.64335524 2.99424895 2.55201254 5.78463145 3.25 9.125 C3.44078125 9.99382812 3.6315625 10.86265625 3.828125 11.7578125 C3.88484375 12.49773437 3.9415625 13.23765625 4 14 C3.34 14.66 2.68 15.32 2 16 C0.40837921 10.42932723 -0.20674944 5.78898419 0 0 Z " fill="#BFB4B3" transform="translate(77,208)"/>
<path d="M0 0 C2 0 2 0 4.625 2.375 C7 5 7 5 7 7 C3.31245243 6.50168276 1.39509338 5.89932357 -1 3 C-0.67 2.01 -0.34 1.02 0 0 Z " fill="#B1A7A9" transform="translate(41,206)"/>
<path d="M0 0 C1.32 1.32 2.64 2.64 4 4 C3.34 5.32 2.68 6.64 2 8 C2 7.01 2 6.02 2 5 C1.34 5 0.68 5 0 5 C-0.33 5.99 -0.66 6.98 -1 8 C-1.66 7.01 -2.32 6.02 -3 5 C-2.505 4.54625 -2.01 4.0925 -1.5 3.625 C0.22609337 2.12364481 0.22609337 2.12364481 0 0 Z " fill="#CFA99F" transform="translate(130,60)"/>
<path d="M0 0 C1.98 0.66 3.96 1.32 6 2 C6 2.66 6 3.32 6 4 C6.66 4.33 7.32 4.66 8 5 C7.01 5.66 6.02 6.32 5 7 C3.29115995 5.37660195 1.62553283 3.70680947 0 2 C0 1.34 0 0.68 0 0 Z " fill="#512E2D" transform="translate(126,54)"/>
<path d="M0 0 C1.65 0 3.3 0 5 0 C5 1.65 5 3.3 5 5 C3.35 5 1.7 5 0 5 C0 3.35 0 1.7 0 0 Z " fill="#D0A17B" transform="translate(144,55)"/>
<path d="M0 0 C0.66 0 1.32 0 2 0 C1.67 0.99 1.34 1.98 1 3 C-0.66666667 3.66666667 -2.33333333 4.33333333 -4 5 C-4.33 5.99 -4.66 6.98 -5 8 C-5.66 6.68 -6.32 5.36 -7 4 C-4 2 -4 2 0 2 C0 1.34 0 0.68 0 0 Z " fill="#BEB1B3" transform="translate(92,41)"/>
<path d="M0 0 C4.42857143 5.14285714 4.42857143 5.14285714 5 9 C4.01 9 3.02 9 2 9 C0 7 0 7 -0.125 3.375 C-0.08375 2.26125 -0.0425 1.1475 0 0 Z " fill="#4B3438" transform="translate(81,64)"/>
<path d="M0 0 C0.66 0.33 1.32 0.66 2 1 C-0.475 4.465 -0.475 4.465 -3 8 C-3.99 7.67 -4.98 7.34 -6 7 C-4.60667426 3.63279613 -3.0210714 2.0140476 0 0 Z " fill="#C9C6C4" transform="translate(57,125)"/>
<path d="M0 0 C0.66 0.33 1.32 0.66 2 1 C1.649375 1.763125 1.29875 2.52625 0.9375 3.3125 C-0.32360884 6.04759379 -0.32360884 6.04759379 1 9 C1.66 9.33 2.32 9.66 3 10 C1.35 9.67 -0.3 9.34 -2 9 C-2.6875 6.75 -2.6875 6.75 -3 4 C-1.5625 1.6875 -1.5625 1.6875 0 0 Z " fill="#DCB7AA" transform="translate(102,57)"/>
<path d="M0 0 C0.99 0 1.98 0 3 0 C1.9024777 2.99324263 1.32317108 3.84610901 -1.625 5.25 C-2.40875 5.4975 -3.1925 5.745 -4 6 C-2.84826645 3.53199953 -1.95216435 1.95216435 0 0 Z " fill="#9B8E8E" transform="translate(178,210)"/>
<path d="M0 0 C2.97 0 5.94 0 9 0 C8.01 1.485 8.01 1.485 7 3 C4.5 3.375 4.5 3.375 2 3 C1.34 2.01 0.68 1.02 0 0 Z " fill="#E88C8F" transform="translate(107,101)"/>
<path d="M0 0 C0.556875 0.28875 1.11375 0.5775 1.6875 0.875 C4.08494645 2.0413253 6.51596939 3.0339881 9 4 C9 4.33 9 4.66 9 5 C6.36 5 3.72 5 1 5 C0.67 3.35 0.34 1.7 0 0 Z " fill="#C0756E" transform="translate(105,101)"/>
<path d="M0 0 C1.25541557 3.76624671 0.37061958 5.37188934 -1 9 C-2.32 8.34 -3.64 7.68 -5 7 C-4.67 6.34 -4.34 5.68 -4 5 C-3.34 5 -2.68 5 -2 5 C-2 4.01 -2 3.02 -2 2 C-1.34 2 -0.68 2 0 2 C0 1.34 0 0.68 0 0 Z " fill="#D1B6A5" transform="translate(133,91)"/>
<path d="M0 0 C3 1 3 1 4.75 3.9375 C5.1625 4.948125 5.575 5.95875 6 7 C5.67 7.66 5.34 8.32 5 9 C1.9083091 6.47043472 1.09068668 3.77545388 0 0 Z " fill="#B5ACA4" transform="translate(117,129)"/>
<path d="M0 0 C3.93846154 4.30769231 3.93846154 4.30769231 4.25 7.8125 C4.1675 8.534375 4.085 9.25625 4 10 C1 8 1 8 0.48828125 6.0546875 C0.32552083 4.03645833 0.16276042 2.01822917 0 0 Z " fill="#D19F8E" transform="translate(92,81)"/>
<path d="M0 0 C2.31 0.33 4.62 0.66 7 1 C6.67 1.66 6.34 2.32 6 3 C3.36 3 0.72 3 -2 3 C-1.34 2.01 -0.68 1.02 0 0 Z " fill="#6A3D32" transform="translate(97,73)"/>
<path d="M0 0 C1 3 1 3 0 6 C-1.65 6 -3.3 6 -5 6 C-5 5.01 -5 4.02 -5 3 C-4.360625 2.87625 -3.72125 2.7525 -3.0625 2.625 C-2.0415625 2.315625 -2.0415625 2.315625 -1 2 C-0.67 1.34 -0.34 0.68 0 0 Z " fill="#391B22" transform="translate(110,46)"/>
<path d="M0 0 C0.33 0 0.66 0 1 0 C1 3.96 1 7.92 1 12 C0.01 11.67 -0.98 11.34 -2 11 C-1.34 7.37 -0.68 3.74 0 0 Z " fill="#E6CEB6" transform="translate(221,139)"/>
<path d="M0 0 C0.66 0.33 1.32 0.66 2 1 C0.8125 3.5 0.8125 3.5 -1 6 C-3.6875 6.3125 -3.6875 6.3125 -6 6 C-4 4 -2 2 0 0 Z " fill="#C49687" transform="translate(115,117)"/>
<path d="M0 0 C0.33 1.32 0.66 2.64 1 4 C-0.32 4.99 -1.64 5.98 -3 7 C-3 6.34 -3 5.68 -3 5 C-3.66 4.67 -4.32 4.34 -5 4 C-3.35 2.68 -1.7 1.36 0 0 Z " fill="#CCA797" transform="translate(125,108)"/>
<path d="M0 0 C1.98 0 3.96 0 6 0 C6.33 0.99 6.66 1.98 7 3 C4.69 3 2.38 3 0 3 C0 2.01 0 1.02 0 0 Z " fill="#744E45" transform="translate(121,73)"/>
<path d="M0 0 C2.875 -0.125 2.875 -0.125 6 0 C6.66 0.66 7.32 1.32 8 2 C3.545 2.495 3.545 2.495 -1 3 C-0.67 2.01 -0.34 1.02 0 0 Z " fill="#6D4A41" transform="translate(120,67)"/>
<path d="M0 0 C0.66 0 1.32 0 2 0 C2.66 1.98 3.32 3.96 4 6 C3.01 6.33 2.02 6.66 1 7 C0.34 5.02 -0.32 3.04 -1 1 C-0.67 0.67 -0.34 0.34 0 0 Z " fill="#462326" transform="translate(133,59)"/>
<path d="M0 0 C1.32 0.66 2.64 1.32 4 2 C4 2.99 4 3.98 4 5 C1.69 4.01 -0.62 3.02 -3 2 C-2.01 1.34 -1.02 0.68 0 0 Z " fill="#3F2024" transform="translate(127,51)"/>
<path d="M0 0 C0.66 1.32 1.32 2.64 2 4 C0.02 4.99 0.02 4.99 -2 6 C-2.33 4.68 -2.66 3.36 -3 2 C-2.01 1.34 -1.02 0.68 0 0 Z " fill="#E3E3E1" transform="translate(107,215)"/>
<path d="M0 0 C1.65 0 3.3 0 5 0 C4.67 1.32 4.34 2.64 4 4 C1.525 3.01 1.525 3.01 -1 2 C-0.67 1.34 -0.34 0.68 0 0 Z " fill="#DECFC9" transform="translate(109,124)"/>
<path d="M0 0 C0.0825 0.61875 0.165 1.2375 0.25 1.875 C0.79994195 4.1765144 0.79994195 4.1765144 3 5.125 C3.66 5.41375 4.32 5.7025 5 6 C5.33 6.66 5.66 7.32 6 8 C4.02 7.34 2.04 6.68 0 6 C0 4.02 0 2.04 0 0 Z " fill="#B79B8D" transform="translate(96,107)"/>
<path d="M0 0 C1.11375 0.3403125 1.11375 0.3403125 2.25 0.6875 C2.25 1.3475 2.25 2.0075 2.25 2.6875 C-0.72 2.6875 -3.69 2.6875 -6.75 2.6875 C-4.29511132 0.41445492 -3.41240272 -0.38777304 0 0 Z " fill="#CC8F85" transform="translate(119.75,98.3125)"/>
<path d="M0 0 C0.66 0 1.32 0 2 0 C2.33 2.64 2.66 5.28 3 8 C2.01 7.67 1.02 7.34 0 7 C0 4.69 0 2.38 0 0 Z " fill="#CD9C8A" transform="translate(96,91)"/>
<path d="M0 0 C0.66 0 1.32 0 2 0 C3.25664978 2.90600261 4 4.79604584 4 8 C3.34 8 2.68 8 2 8 C1.34 5.36 0.68 2.72 0 0 Z " fill="#E5D5CE" transform="translate(89,91)"/>
<path d="M0 0 C1.32 0.33 2.64 0.66 4 1 C3.67 2.65 3.34 4.3 3 6 C2.01 5.34 1.02 4.68 0 4 C0 2.68 0 1.36 0 0 Z " fill="#91665D" transform="translate(85,75)"/>
<path d="M0 0 C0.99 0 1.98 0 3 0 C3 1.65 3 3.3 3 5 C2.01 5.33 1.02 5.66 0 6 C0 4.02 0 2.04 0 0 Z " fill="#CDAD93" transform="translate(166,56)"/>
<path d="M0 0 C0.33 1.32 0.66 2.64 1 4 C2.98 4 4.96 4 7 4 C7 4.33 7 4.66 7 5 C0.375 5.25 0.375 5.25 -3 3 C-2.01 2.01 -1.02 1.02 0 0 Z " fill="#52333A" transform="translate(103,48)"/>
</svg>
